# File created by Blade
# Date/Time:  Wed Jan 21 16:33:30 2015
# Frame Rate: 120.000 fps
#------------------------------------------------------
:FULLY-SPECIFIED
:DEGREES
937
root 27.679663 15.685337 -24.948321 -125.390487 95.530206 -32.257392
Spine -27.754671 -4.688116 4.251900
Head 30.970489 8.805310 -6.356169
LeftShoulder -3.757171 -61.430520 26.979139
LeftArm 16.027864 -48.326144 -16.353807
LeftForeArm 19.048387 0.000000 94.462604
LeftHand 4.300997 -0.000000 99.675594
LeftHandThumb1 -26.253704 0.000000 33.147579
RightShoulder -1.542439 16.547557 -27.420490
RightArm 88.081089 67.822059 95.903883
RightForeArm -62.921936 -0.000000 103.884440
RightHand 1.095216 0.000000 -82.120614
RightHandThumb1 -24.326973 -0.000000 -32.862282
LeftUpLeg 2.370573 3.254299 8.631663
LeftLeg 119.168373 -0.000000 -0.000000
LeftFoot -48.492979 30.590389 -14.939288
LeftToeBase 24.759207 -0.000000 -0.000000
RightUpLeg 1.409383 12.625435 -9.639014
RightLeg 120.875305 -0.000000 -0.000000
RightFoot -49.030059 -35.174784 23.697476
RightToeBase 26.065430 -0.000000 -0.000000
938
root 27.702004 15.561158 -24.953382 -124.627746 95.624736 -31.335457
Spine -27.441777 -4.843633 4.165873
Head 31.342401 8.933976 -6.273552
LeftShoulder -3.896227 -61.475269 27.076730
LeftArm 15.783656 -48.263702 -16.580104
LeftForeArm 19.112125 0.000000 94.911248
LeftHand 4.654051 -0.000000 99.306408
LeftHandThumb1 -26.253704 0.000000 33.147579
RightShoulder -1.426465 16.250442 -27.412330
RightArm 87.885523 67.713465 96.056068
RightForeArm -63.309493 0.000000 104.361808
RightHand 1.257704 -0.000000 -81.710484
RightHandThumb1 -24.326973 -0.000000 -32.862282
LeftUpLeg 2.124152 3.263147 8.609598
LeftLeg 119.611898 -0.000000 -0.000000
LeftFoot -48.537707 30.550937 -14.846634
LeftToeBase 24.775595 -0.000000 -0.000000
RightUpLeg 1.240742 12.737455 -9.714549
RightLeg 121.304585 -0.000000 -0.000000
RightFoot -49.095596 -35.253618 23.652443
RightToeBase 26.227097 -0.000000 -0.000000
939
root 27.732345 15.443175 -24.946216 -122.464157 95.581413 -28.847795
Spine -26.891849 -5.159041 4.013262
Head 31.605870 8.965266 -6.170734
LeftShoulder -3.917136 -61.606737 27.055645
LeftArm 15.677221 -48.165168 -16.786047
LeftForeArm 19.306284 -0.000000 95.256955
LeftHand 4.372084 -0.000000 99.871992
LeftHandThumb1 -26.253704 0.000000 33.147579
RightShoulder -1.378373 15.492698 -27.429545
RightArm 88.640245 67.789194 97.057451
RightForeArm -63.689904 -0.000000 104.858555
RightHand 1.192568 -0.000000 -81.062664
RightHandThumb1 -24.326973 -0.000000 -32.862282
LeftUpLeg 1.977811 3.028967 8.684080
LeftLeg 120.101484 -0.000000 -0.000000
LeftFoot -48.566139 30.469036 -14.749811
LeftToeBase 24.752229 -0.000000 -0.000000
RightUpLeg 1.336443 12.633421 -9.670809
RightLeg 121.696385 -0.000000 -0.000000
RightFoot -49.205766 -35.250338 23.776082
RightToeBase 26.168688 -0.000000 -0.000000
940
root 27.761651 15.316640 -24.951796 -121.626416 95.662419 -27.887557
Spine -26.599421 -5.237058 3.902956
Head 31.913686 8.997702 -6.135482
LeftShoulder -3.836821 -61.855129 26.874809
LeftArm 15.592583 -47.964521 -16.970203
LeftForeArm 19.431610 -0.000000 95.508253
LeftHand 4.801592 0.000000 100.513696
LeftHandThumb1 -26.253704 0.000000 33.147579
RightShoulder -1.294025 16.488157 -27.153788
RightArm 84.767914 67.893179 93.089452
RightForeArm -64.129734 0.000000 105.054436
RightHand 0.880772 -0.000000 -81.205220
RightHandThumb1 -24.326973 -0.000000 -32.862282
LeftUpLeg 1.684442 3.021195 8.678455
LeftLeg 120.575674 -0.000000 -0.000000
LeftFoot -48.618115 30.403743 -14.676363
LeftToeBase 24.776942 -0.000000 -0.000000
RightUpLeg 1.128345 12.711773 -9.771861
RightLeg 122.149629 -0.000000 -0.000000
RightFoot -49.307009 -35.335990 23.775730
RightToeBase 26.369462 -0.000000 -0.000000
